solid OpenSCAD_Model
  facet normal -1 0 0
    outer loop
      vertex 0 40 0
      vertex 0 27.5 4
      vertex 0 40 10
    endloop
  endfacet
  facet normal -1 0 0
    outer loop
      vertex 0 0 0
      vertex 0 27.5 4
      vertex 0 40 0
    endloop
  endfacet
  facet normal -1 -0 0
    outer loop
      vertex 0 27.5 4
      vertex 0 0 0
      vertex 0 0 4
    endloop
  endfacet
  facet normal -1 -0 0
    outer loop
      vertex 0 40 10
      vertex 0 27.5 4
      vertex 0 27.5 10
    endloop
  endfacet
  facet normal -0 0 1
    outer loop
      vertex 0 27.5 4
      vertex 60 0 4
      vertex 60 27.5 4
    endloop
  endfacet
  facet normal 0 0 1
    outer loop
      vertex 60 0 4
      vertex 0 27.5 4
      vertex 0 0 4
    endloop
  endfacet
  facet normal 1 0 0
    outer loop
      vertex 60 27.5 4
      vertex 60 40 10
      vertex 60 27.5 10
    endloop
  endfacet
  facet normal 1 0 0
    outer loop
      vertex 60 40 10
      vertex 60 27.5 4
      vertex 60 40 0
    endloop
  endfacet
  facet normal 1 0 0
    outer loop
      vertex 60 0 0
      vertex 60 27.5 4
      vertex 60 0 4
    endloop
  endfacet
  facet normal 1 0 0
    outer loop
      vertex 60 27.5 4
      vertex 60 0 0
      vertex 60 40 0
    endloop
  endfacet
  facet normal 0 1 -0
    outer loop
      vertex 60 40 0
      vertex 0 40 10
      vertex 60 40 10
    endloop
  endfacet
  facet normal 0 1 0
    outer loop
      vertex 0 40 10
      vertex 60 40 0
      vertex 0 40 0
    endloop
  endfacet
  facet normal 0 0 -1
    outer loop
      vertex 60 0 0
      vertex 58.0028 33.75 0
      vertex 60 40 0
    endloop
  endfacet
  facet normal 0 0 -1
    outer loop
      vertex 60 0 0
      vertex 56.1014 30.4567 0
      vertex 58.0028 33.75 0
    endloop
  endfacet
  facet normal 0 0 -1
    outer loop
      vertex 60 0 0
      vertex 52.2986 30.4567 0
      vertex 56.1014 30.4567 0
    endloop
  endfacet
  facet normal 0 0 -1
    outer loop
      vertex 51.7014 30.4567 0
      vertex 52.2986 30.4567 0
      vertex 60 0 0
    endloop
  endfacet
  facet normal 0 0 -1
    outer loop
      vertex 52.2986 30.4567 0
      vertex 51.7014 30.4567 0
      vertex 52 30.9739 0
    endloop
  endfacet
  facet normal 0 0 -1
    outer loop
      vertex 60 0 0
      vertex 47.8986 30.4567 0
      vertex 51.7014 30.4567 0
    endloop
  endfacet
  facet normal 0 0 -1
    outer loop
      vertex 47.3014 30.4567 0
      vertex 47.8986 30.4567 0
      vertex 60 0 0
    endloop
  endfacet
  facet normal 0 0 -1
    outer loop
      vertex 47.8986 30.4567 0
      vertex 47.3014 30.4567 0
      vertex 47.6 30.9739 0
    endloop
  endfacet
  facet normal 0 0 -1
    outer loop
      vertex 60 0 0
      vertex 43.4986 30.4567 0
      vertex 47.3014 30.4567 0
    endloop
  endfacet
  facet normal 0 0 -1
    outer loop
      vertex 42.9014 30.4567 0
      vertex 43.4986 30.4567 0
      vertex 60 0 0
    endloop
  endfacet
  facet normal 0 0 -1
    outer loop
      vertex 43.4986 30.4567 0
      vertex 42.9014 30.4567 0
      vertex 43.2 30.9739 0
    endloop
  endfacet
  facet normal 0 0 -1
    outer loop
      vertex 60 0 0
      vertex 39.0986 30.4567 0
      vertex 42.9014 30.4567 0
    endloop
  endfacet
  facet normal 0 0 -1
    outer loop
      vertex 39.0986 30.4567 0
      vertex 38.5014 30.4567 0
      vertex 38.8 30.9739 0
    endloop
  endfacet
  facet normal 0 0 -1
    outer loop
      vertex 60 0 0
      vertex 38.5014 30.4567 0
      vertex 39.0986 30.4567 0
    endloop
  endfacet
  facet normal 0 0 -1
    outer loop
      vertex 60 0 0
      vertex 34.6986 30.4567 0
      vertex 38.5014 30.4567 0
    endloop
  endfacet
  facet normal 0 0 -1
    outer loop
      vertex 34.6986 30.4567 0
      vertex 34.1014 30.4567 0
      vertex 34.4 30.9739 0
    endloop
  endfacet
  facet normal 0 0 -1
    outer loop
      vertex 60 0 0
      vertex 34.1014 30.4567 0
      vertex 34.6986 30.4567 0
    endloop
  endfacet
  facet normal 0 0 -1
    outer loop
      vertex 60 0 0
      vertex 30.2986 30.4567 0
      vertex 34.1014 30.4567 0
    endloop
  endfacet
  facet normal 0 0 -1
    outer loop
      vertex 30.2986 30.4567 0
      vertex 29.7014 30.4567 0
      vertex 30 30.9739 0
    endloop
  endfacet
  facet normal 0 0 -1
    outer loop
      vertex 60 0 0
      vertex 29.7014 30.4567 0
      vertex 30.2986 30.4567 0
    endloop
  endfacet
  facet normal 0 0 -1
    outer loop
      vertex 0 0 0
      vertex 29.7014 30.4567 0
      vertex 60 0 0
    endloop
  endfacet
  facet normal 0 0 -1
    outer loop
      vertex 25.8986 30.4567 0
      vertex 25.3014 30.4567 0
      vertex 25.6 30.9739 0
    endloop
  endfacet
  facet normal -0 0 -1
    outer loop
      vertex 29.7014 30.4567 0
      vertex 0 0 0
      vertex 25.8986 30.4567 0
    endloop
  endfacet
  facet normal -0 0 -1
    outer loop
      vertex 25.8986 30.4567 0
      vertex 0 0 0
      vertex 25.3014 30.4567 0
    endloop
  endfacet
  facet normal 0 0 -1
    outer loop
      vertex 21.4986 30.4567 0
      vertex 20.9014 30.4567 0
      vertex 21.2 30.9739 0
    endloop
  endfacet
  facet normal -0 0 -1
    outer loop
      vertex 25.3014 30.4567 0
      vertex 0 0 0
      vertex 21.4986 30.4567 0
    endloop
  endfacet
  facet normal -0 0 -1
    outer loop
      vertex 21.4986 30.4567 0
      vertex 0 0 0
      vertex 20.9014 30.4567 0
    endloop
  endfacet
  facet normal 0 0 -1
    outer loop
      vertex 17.0986 30.4567 0
      vertex 16.5014 30.4567 0
      vertex 16.8 30.9739 0
    endloop
  endfacet
  facet normal -0 0 -1
    outer loop
      vertex 20.9014 30.4567 0
      vertex 0 0 0
      vertex 17.0986 30.4567 0
    endloop
  endfacet
  facet normal -0 0 -1
    outer loop
      vertex 17.0986 30.4567 0
      vertex 0 0 0
      vertex 16.5014 30.4567 0
    endloop
  endfacet
  facet normal 0 0 -1
    outer loop
      vertex 12.6986 30.4567 0
      vertex 12.1014 30.4567 0
      vertex 12.4 30.9739 0
    endloop
  endfacet
  facet normal -0 0 -1
    outer loop
      vertex 16.5014 30.4567 0
      vertex 0 0 0
      vertex 12.6986 30.4567 0
    endloop
  endfacet
  facet normal -0 0 -1
    outer loop
      vertex 12.6986 30.4567 0
      vertex 0 0 0
      vertex 12.1014 30.4567 0
    endloop
  endfacet
  facet normal 0 0 -1
    outer loop
      vertex 8.29861 30.4567 0
      vertex 7.70139 30.4567 0
      vertex 8 30.9739 0
    endloop
  endfacet
  facet normal -0 0 -1
    outer loop
      vertex 12.1014 30.4567 0
      vertex 0 0 0
      vertex 8.29861 30.4567 0
    endloop
  endfacet
  facet normal -0 0 -1
    outer loop
      vertex 8.29861 30.4567 0
      vertex 0 0 0
      vertex 7.70139 30.4567 0
    endloop
  endfacet
  facet normal -0 0 -1
    outer loop
      vertex 3.89861 30.4567 0
      vertex 0 0 0
      vertex 1.99722 33.75 0
    endloop
  endfacet
  facet normal -0 0 -1
    outer loop
      vertex 7.70139 30.4567 0
      vertex 0 0 0
      vertex 3.89861 30.4567 0
    endloop
  endfacet
  facet normal 0 0 -1
    outer loop
      vertex 56.1014 37.0433 0
      vertex 60 40 0
      vertex 58.0028 33.75 0
    endloop
  endfacet
  facet normal 0 0 -1
    outer loop
      vertex 52.2986 37.0433 0
      vertex 60 40 0
      vertex 56.1014 37.0433 0
    endloop
  endfacet
  facet normal 0 0 -1
    outer loop
      vertex 51.7014 37.0433 0
      vertex 52.2986 37.0433 0
      vertex 52 36.5261 0
    endloop
  endfacet
  facet normal 0 0 -1
    outer loop
      vertex 51.7014 37.0433 0
      vertex 60 40 0
      vertex 52.2986 37.0433 0
    endloop
  endfacet
  facet normal 0 0 -1
    outer loop
      vertex 47.8986 37.0433 0
      vertex 60 40 0
      vertex 51.7014 37.0433 0
    endloop
  endfacet
  facet normal 0 0 -1
    outer loop
      vertex 47.3014 37.0433 0
      vertex 47.8986 37.0433 0
      vertex 47.6 36.5261 0
    endloop
  endfacet
  facet normal 0 0 -1
    outer loop
      vertex 47.3014 37.0433 0
      vertex 60 40 0
      vertex 47.8986 37.0433 0
    endloop
  endfacet
  facet normal 0 0 -1
    outer loop
      vertex 43.4986 37.0433 0
      vertex 60 40 0
      vertex 47.3014 37.0433 0
    endloop
  endfacet
  facet normal 0 0 -1
    outer loop
      vertex 42.9014 37.0433 0
      vertex 43.4986 37.0433 0
      vertex 43.2 36.5261 0
    endloop
  endfacet
  facet normal 0 0 -1
    outer loop
      vertex 42.9014 37.0433 0
      vertex 60 40 0
      vertex 43.4986 37.0433 0
    endloop
  endfacet
  facet normal 0 0 -1
    outer loop
      vertex 39.0986 37.0433 0
      vertex 60 40 0
      vertex 42.9014 37.0433 0
    endloop
  endfacet
  facet normal 0 0 -1
    outer loop
      vertex 38.5014 37.0433 0
      vertex 39.0986 37.0433 0
      vertex 38.8 36.5261 0
    endloop
  endfacet
  facet normal 0 0 -1
    outer loop
      vertex 38.5014 37.0433 0
      vertex 60 40 0
      vertex 39.0986 37.0433 0
    endloop
  endfacet
  facet normal 0 0 -1
    outer loop
      vertex 34.6986 37.0433 0
      vertex 60 40 0
      vertex 38.5014 37.0433 0
    endloop
  endfacet
  facet normal 0 0 -1
    outer loop
      vertex 34.1014 37.0433 0
      vertex 34.6986 37.0433 0
      vertex 34.4 36.5261 0
    endloop
  endfacet
  facet normal 0 0 -1
    outer loop
      vertex 34.1014 37.0433 0
      vertex 60 40 0
      vertex 34.6986 37.0433 0
    endloop
  endfacet
  facet normal 0 0 -1
    outer loop
      vertex 30.2986 37.0433 0
      vertex 60 40 0
      vertex 34.1014 37.0433 0
    endloop
  endfacet
  facet normal 0 0 -1
    outer loop
      vertex 29.7014 37.0433 0
      vertex 30.2986 37.0433 0
      vertex 30 36.5261 0
    endloop
  endfacet
  facet normal 0 0 -1
    outer loop
      vertex 29.7014 37.0433 0
      vertex 60 40 0
      vertex 30.2986 37.0433 0
    endloop
  endfacet
  facet normal 0 0 -1
    outer loop
      vertex 0 40 0
      vertex 29.7014 37.0433 0
      vertex 25.8986 37.0433 0
    endloop
  endfacet
  facet normal 0 0 -1
    outer loop
      vertex 25.3014 37.0433 0
      vertex 25.8986 37.0433 0
      vertex 25.6 36.5261 0
    endloop
  endfacet
  facet normal 0 0 -1
    outer loop
      vertex 0 40 0
      vertex 25.8986 37.0433 0
      vertex 25.3014 37.0433 0
    endloop
  endfacet
  facet normal 0 0 -1
    outer loop
      vertex 0 40 0
      vertex 25.3014 37.0433 0
      vertex 21.4986 37.0433 0
    endloop
  endfacet
  facet normal 0 0 -1
    outer loop
      vertex 20.9014 37.0433 0
      vertex 21.4986 37.0433 0
      vertex 21.2 36.5261 0
    endloop
  endfacet
  facet normal 0 0 -1
    outer loop
      vertex 0 40 0
      vertex 21.4986 37.0433 0
      vertex 20.9014 37.0433 0
    endloop
  endfacet
  facet normal 0 0 -1
    outer loop
      vertex 0 40 0
      vertex 20.9014 37.0433 0
      vertex 17.0986 37.0433 0
    endloop
  endfacet
  facet normal 0 0 -1
    outer loop
      vertex 16.5014 37.0433 0
      vertex 17.0986 37.0433 0
      vertex 16.8 36.5261 0
    endloop
  endfacet
  facet normal 0 0 -1
    outer loop
      vertex 0 40 0
      vertex 17.0986 37.0433 0
      vertex 16.5014 37.0433 0
    endloop
  endfacet
  facet normal 0 0 -1
    outer loop
      vertex 0 40 0
      vertex 16.5014 37.0433 0
      vertex 12.6986 37.0433 0
    endloop
  endfacet
  facet normal 0 0 -1
    outer loop
      vertex 12.1014 37.0433 0
      vertex 12.6986 37.0433 0
      vertex 12.4 36.5261 0
    endloop
  endfacet
  facet normal 0 0 -1
    outer loop
      vertex 0 40 0
      vertex 12.6986 37.0433 0
      vertex 12.1014 37.0433 0
    endloop
  endfacet
  facet normal 0 0 -1
    outer loop
      vertex 0 40 0
      vertex 12.1014 37.0433 0
      vertex 8.29861 37.0433 0
    endloop
  endfacet
  facet normal 0 0 -1
    outer loop
      vertex 7.70139 37.0433 0
      vertex 8.29861 37.0433 0
      vertex 8 36.5261 0
    endloop
  endfacet
  facet normal 0 0 -1
    outer loop
      vertex 0 40 0
      vertex 8.29861 37.0433 0
      vertex 7.70139 37.0433 0
    endloop
  endfacet
  facet normal 0 0 -1
    outer loop
      vertex 0 40 0
      vertex 7.70139 37.0433 0
      vertex 3.89861 37.0433 0
    endloop
  endfacet
  facet normal 0 0 -1
    outer loop
      vertex 29.7014 37.0433 0
      vertex 0 40 0
      vertex 60 40 0
    endloop
  endfacet
  facet normal 0 0 -1
    outer loop
      vertex 1.99722 33.75 0
      vertex 0 40 0
      vertex 3.89861 37.0433 0
    endloop
  endfacet
  facet normal 0 0 -1
    outer loop
      vertex 0 40 0
      vertex 1.99722 33.75 0
      vertex 0 0 0
    endloop
  endfacet
  facet normal 0 -1 0
    outer loop
      vertex 0 0 0
      vertex 60 0 4
      vertex 0 0 4
    endloop
  endfacet
  facet normal 0 -1 -0
    outer loop
      vertex 60 0 4
      vertex 0 0 0
      vertex 60 0 0
    endloop
  endfacet
  facet normal 0 0 1
    outer loop
      vertex 60 40 10
      vertex 58.0028 33.75 10
      vertex 60 27.5 10
    endloop
  endfacet
  facet normal 0 0 1
    outer loop
      vertex 60 40 10
      vertex 56.1014 37.0433 10
      vertex 58.0028 33.75 10
    endloop
  endfacet
  facet normal 0 0 1
    outer loop
      vertex 60 40 10
      vertex 52.2986 37.0433 10
      vertex 56.1014 37.0433 10
    endloop
  endfacet
  facet normal 0 0 1
    outer loop
      vertex 52.2986 37.0433 10
      vertex 51.7014 37.0433 10
      vertex 52 36.5261 10
    endloop
  endfacet
  facet normal 0 0 1
    outer loop
      vertex 60 40 10
      vertex 51.7014 37.0433 10
      vertex 52.2986 37.0433 10
    endloop
  endfacet
  facet normal 0 0 1
    outer loop
      vertex 60 40 10
      vertex 47.8986 37.0433 10
      vertex 51.7014 37.0433 10
    endloop
  endfacet
  facet normal 0 0 1
    outer loop
      vertex 47.8986 37.0433 10
      vertex 47.3014 37.0433 10
      vertex 47.6 36.5261 10
    endloop
  endfacet
  facet normal 0 0 1
    outer loop
      vertex 60 40 10
      vertex 47.3014 37.0433 10
      vertex 47.8986 37.0433 10
    endloop
  endfacet
  facet normal 0 0 1
    outer loop
      vertex 60 40 10
      vertex 43.4986 37.0433 10
      vertex 47.3014 37.0433 10
    endloop
  endfacet
  facet normal 0 0 1
    outer loop
      vertex 43.4986 37.0433 10
      vertex 42.9014 37.0433 10
      vertex 43.2 36.5261 10
    endloop
  endfacet
  facet normal 0 0 1
    outer loop
      vertex 60 40 10
      vertex 42.9014 37.0433 10
      vertex 43.4986 37.0433 10
    endloop
  endfacet
  facet normal 0 0 1
    outer loop
      vertex 60 40 10
      vertex 39.0986 37.0433 10
      vertex 42.9014 37.0433 10
    endloop
  endfacet
  facet normal 0 0 1
    outer loop
      vertex 39.0986 37.0433 10
      vertex 38.5014 37.0433 10
      vertex 38.8 36.5261 10
    endloop
  endfacet
  facet normal 0 0 1
    outer loop
      vertex 60 40 10
      vertex 38.5014 37.0433 10
      vertex 39.0986 37.0433 10
    endloop
  endfacet
  facet normal 0 0 1
    outer loop
      vertex 60 40 10
      vertex 34.6986 37.0433 10
      vertex 38.5014 37.0433 10
    endloop
  endfacet
  facet normal 0 0 1
    outer loop
      vertex 34.6986 37.0433 10
      vertex 34.1014 37.0433 10
      vertex 34.4 36.5261 10
    endloop
  endfacet
  facet normal 0 0 1
    outer loop
      vertex 60 40 10
      vertex 34.1014 37.0433 10
      vertex 34.6986 37.0433 10
    endloop
  endfacet
  facet normal 0 0 1
    outer loop
      vertex 60 40 10
      vertex 30.2986 37.0433 10
      vertex 34.1014 37.0433 10
    endloop
  endfacet
  facet normal 0 0 1
    outer loop
      vertex 30.2986 37.0433 10
      vertex 29.7014 37.0433 10
      vertex 30 36.5261 10
    endloop
  endfacet
  facet normal 0 0 1
    outer loop
      vertex 60 40 10
      vertex 29.7014 37.0433 10
      vertex 30.2986 37.0433 10
    endloop
  endfacet
  facet normal -0 0 1
    outer loop
      vertex 0 40 10
      vertex 29.7014 37.0433 10
      vertex 60 40 10
    endloop
  endfacet
  facet normal 0 0 1
    outer loop
      vertex 25.8986 37.0433 10
      vertex 25.3014 37.0433 10
      vertex 25.6 36.5261 10
    endloop
  endfacet
  facet normal 0 0 1
    outer loop
      vertex 29.7014 37.0433 10
      vertex 0 40 10
      vertex 25.8986 37.0433 10
    endloop
  endfacet
  facet normal 0 0 1
    outer loop
      vertex 25.8986 37.0433 10
      vertex 0 40 10
      vertex 25.3014 37.0433 10
    endloop
  endfacet
  facet normal 0 0 1
    outer loop
      vertex 21.4986 37.0433 10
      vertex 20.9014 37.0433 10
      vertex 21.2 36.5261 10
    endloop
  endfacet
  facet normal 0 0 1
    outer loop
      vertex 25.3014 37.0433 10
      vertex 0 40 10
      vertex 21.4986 37.0433 10
    endloop
  endfacet
  facet normal 0 0 1
    outer loop
      vertex 21.4986 37.0433 10
      vertex 0 40 10
      vertex 20.9014 37.0433 10
    endloop
  endfacet
  facet normal 0 0 1
    outer loop
      vertex 17.0986 37.0433 10
      vertex 16.5014 37.0433 10
      vertex 16.8 36.5261 10
    endloop
  endfacet
  facet normal 0 0 1
    outer loop
      vertex 20.9014 37.0433 10
      vertex 0 40 10
      vertex 17.0986 37.0433 10
    endloop
  endfacet
  facet normal 0 0 1
    outer loop
      vertex 17.0986 37.0433 10
      vertex 0 40 10
      vertex 16.5014 37.0433 10
    endloop
  endfacet
  facet normal 0 0 1
    outer loop
      vertex 12.6986 37.0433 10
      vertex 12.1014 37.0433 10
      vertex 12.4 36.5261 10
    endloop
  endfacet
  facet normal 0 0 1
    outer loop
      vertex 16.5014 37.0433 10
      vertex 0 40 10
      vertex 12.6986 37.0433 10
    endloop
  endfacet
  facet normal 0 0 1
    outer loop
      vertex 12.6986 37.0433 10
      vertex 0 40 10
      vertex 12.1014 37.0433 10
    endloop
  endfacet
  facet normal 0 0 1
    outer loop
      vertex 8.29861 37.0433 10
      vertex 7.70139 37.0433 10
      vertex 8 36.5261 10
    endloop
  endfacet
  facet normal 0 0 1
    outer loop
      vertex 12.1014 37.0433 10
      vertex 0 40 10
      vertex 8.29861 37.0433 10
    endloop
  endfacet
  facet normal 0 0 1
    outer loop
      vertex 8.29861 37.0433 10
      vertex 0 40 10
      vertex 7.70139 37.0433 10
    endloop
  endfacet
  facet normal 0 0 1
    outer loop
      vertex 3.89861 37.0433 10
      vertex 0 40 10
      vertex 1.99722 33.75 10
    endloop
  endfacet
  facet normal 0 0 1
    outer loop
      vertex 7.70139 37.0433 10
      vertex 0 40 10
      vertex 3.89861 37.0433 10
    endloop
  endfacet
  facet normal -0 0 1
    outer loop
      vertex 56.1014 30.4567 10
      vertex 60 27.5 10
      vertex 58.0028 33.75 10
    endloop
  endfacet
  facet normal -0 0 1
    outer loop
      vertex 52.2986 30.4567 10
      vertex 60 27.5 10
      vertex 56.1014 30.4567 10
    endloop
  endfacet
  facet normal 0 0 1
    outer loop
      vertex 51.7014 30.4567 10
      vertex 52.2986 30.4567 10
      vertex 52 30.9739 10
    endloop
  endfacet
  facet normal -0 0 1
    outer loop
      vertex 51.7014 30.4567 10
      vertex 60 27.5 10
      vertex 52.2986 30.4567 10
    endloop
  endfacet
  facet normal -0 0 1
    outer loop
      vertex 47.8986 30.4567 10
      vertex 60 27.5 10
      vertex 51.7014 30.4567 10
    endloop
  endfacet
  facet normal 0 0 1
    outer loop
      vertex 47.3014 30.4567 10
      vertex 47.8986 30.4567 10
      vertex 47.6 30.9739 10
    endloop
  endfacet
  facet normal -0 0 1
    outer loop
      vertex 47.3014 30.4567 10
      vertex 60 27.5 10
      vertex 47.8986 30.4567 10
    endloop
  endfacet
  facet normal -0 0 1
    outer loop
      vertex 43.4986 30.4567 10
      vertex 60 27.5 10
      vertex 47.3014 30.4567 10
    endloop
  endfacet
  facet normal 0 0 1
    outer loop
      vertex 42.9014 30.4567 10
      vertex 43.4986 30.4567 10
      vertex 43.2 30.9739 10
    endloop
  endfacet
  facet normal -0 0 1
    outer loop
      vertex 42.9014 30.4567 10
      vertex 60 27.5 10
      vertex 43.4986 30.4567 10
    endloop
  endfacet
  facet normal -0 0 1
    outer loop
      vertex 39.0986 30.4567 10
      vertex 60 27.5 10
      vertex 42.9014 30.4567 10
    endloop
  endfacet
  facet normal 0 0 1
    outer loop
      vertex 38.5014 30.4567 10
      vertex 39.0986 30.4567 10
      vertex 38.8 30.9739 10
    endloop
  endfacet
  facet normal -0 0 1
    outer loop
      vertex 38.5014 30.4567 10
      vertex 60 27.5 10
      vertex 39.0986 30.4567 10
    endloop
  endfacet
  facet normal -0 0 1
    outer loop
      vertex 34.6986 30.4567 10
      vertex 60 27.5 10
      vertex 38.5014 30.4567 10
    endloop
  endfacet
  facet normal 0 0 1
    outer loop
      vertex 34.1014 30.4567 10
      vertex 34.6986 30.4567 10
      vertex 34.4 30.9739 10
    endloop
  endfacet
  facet normal -0 0 1
    outer loop
      vertex 34.1014 30.4567 10
      vertex 60 27.5 10
      vertex 34.6986 30.4567 10
    endloop
  endfacet
  facet normal -0 0 1
    outer loop
      vertex 30.2986 30.4567 10
      vertex 60 27.5 10
      vertex 34.1014 30.4567 10
    endloop
  endfacet
  facet normal 0 0 1
    outer loop
      vertex 29.7014 30.4567 10
      vertex 30.2986 30.4567 10
      vertex 30 30.9739 10
    endloop
  endfacet
  facet normal -0 0 1
    outer loop
      vertex 29.7014 30.4567 10
      vertex 60 27.5 10
      vertex 30.2986 30.4567 10
    endloop
  endfacet
  facet normal 0 0 1
    outer loop
      vertex 0 27.5 10
      vertex 29.7014 30.4567 10
      vertex 25.8986 30.4567 10
    endloop
  endfacet
  facet normal 0 0 1
    outer loop
      vertex 25.3014 30.4567 10
      vertex 25.8986 30.4567 10
      vertex 25.6 30.9739 10
    endloop
  endfacet
  facet normal 0 0 1
    outer loop
      vertex 0 27.5 10
      vertex 25.8986 30.4567 10
      vertex 25.3014 30.4567 10
    endloop
  endfacet
  facet normal 0 0 1
    outer loop
      vertex 0 27.5 10
      vertex 25.3014 30.4567 10
      vertex 21.4986 30.4567 10
    endloop
  endfacet
  facet normal 0 0 1
    outer loop
      vertex 20.9014 30.4567 10
      vertex 21.4986 30.4567 10
      vertex 21.2 30.9739 10
    endloop
  endfacet
  facet normal 0 0 1
    outer loop
      vertex 0 27.5 10
      vertex 21.4986 30.4567 10
      vertex 20.9014 30.4567 10
    endloop
  endfacet
  facet normal 0 0 1
    outer loop
      vertex 0 27.5 10
      vertex 20.9014 30.4567 10
      vertex 17.0986 30.4567 10
    endloop
  endfacet
  facet normal 0 0 1
    outer loop
      vertex 16.5014 30.4567 10
      vertex 17.0986 30.4567 10
      vertex 16.8 30.9739 10
    endloop
  endfacet
  facet normal 0 0 1
    outer loop
      vertex 0 27.5 10
      vertex 17.0986 30.4567 10
      vertex 16.5014 30.4567 10
    endloop
  endfacet
  facet normal 0 0 1
    outer loop
      vertex 0 27.5 10
      vertex 16.5014 30.4567 10
      vertex 12.6986 30.4567 10
    endloop
  endfacet
  facet normal 0 0 1
    outer loop
      vertex 12.1014 30.4567 10
      vertex 12.6986 30.4567 10
      vertex 12.4 30.9739 10
    endloop
  endfacet
  facet normal 0 0 1
    outer loop
      vertex 0 27.5 10
      vertex 12.6986 30.4567 10
      vertex 12.1014 30.4567 10
    endloop
  endfacet
  facet normal 0 0 1
    outer loop
      vertex 0 27.5 10
      vertex 12.1014 30.4567 10
      vertex 8.29861 30.4567 10
    endloop
  endfacet
  facet normal 0 0 1
    outer loop
      vertex 7.70139 30.4567 10
      vertex 8.29861 30.4567 10
      vertex 8 30.9739 10
    endloop
  endfacet
  facet normal 0 0 1
    outer loop
      vertex 0 27.5 10
      vertex 8.29861 30.4567 10
      vertex 7.70139 30.4567 10
    endloop
  endfacet
  facet normal 0 0 1
    outer loop
      vertex 0 27.5 10
      vertex 7.70139 30.4567 10
      vertex 3.89861 30.4567 10
    endloop
  endfacet
  facet normal 0 0 1
    outer loop
      vertex 29.7014 30.4567 10
      vertex 0 27.5 10
      vertex 60 27.5 10
    endloop
  endfacet
  facet normal 0 0 1
    outer loop
      vertex 1.99722 33.75 10
      vertex 0 27.5 10
      vertex 3.89861 30.4567 10
    endloop
  endfacet
  facet normal 0 0 1
    outer loop
      vertex 0 27.5 10
      vertex 1.99722 33.75 10
      vertex 0 40 10
    endloop
  endfacet
  facet normal 0 -1 0
    outer loop
      vertex 0 27.5 4
      vertex 60 27.5 10
      vertex 0 27.5 10
    endloop
  endfacet
  facet normal 0 -1 -0
    outer loop
      vertex 60 27.5 10
      vertex 0 27.5 4
      vertex 60 27.5 4
    endloop
  endfacet
  facet normal -0.866025 -0.500001 0
    outer loop
      vertex 8 36.5261 0
      vertex 7.70139 37.0433 10
      vertex 7.70139 37.0433 0
    endloop
  endfacet
  facet normal -0.866025 -0.500001 0
    outer loop
      vertex 7.70139 37.0433 10
      vertex 8 36.5261 0
      vertex 8 36.5261 10
    endloop
  endfacet
  facet normal 0.866025 0.5 0
    outer loop
      vertex 3.89861 30.4567 10
      vertex 1.99722 33.75 0
      vertex 1.99722 33.75 10
    endloop
  endfacet
  facet normal 0.866025 0.5 0
    outer loop
      vertex 1.99722 33.75 0
      vertex 3.89861 30.4567 10
      vertex 3.89861 30.4567 0
    endloop
  endfacet
  facet normal 0 -1 0
    outer loop
      vertex 3.89861 37.0433 0
      vertex 7.70139 37.0433 10
      vertex 3.89861 37.0433 10
    endloop
  endfacet
  facet normal 0 -1 -0
    outer loop
      vertex 7.70139 37.0433 10
      vertex 3.89861 37.0433 0
      vertex 7.70139 37.0433 0
    endloop
  endfacet
  facet normal 0 1 -0
    outer loop
      vertex 7.70139 30.4567 0
      vertex 3.89861 30.4567 10
      vertex 7.70139 30.4567 10
    endloop
  endfacet
  facet normal 0 1 0
    outer loop
      vertex 3.89861 30.4567 10
      vertex 7.70139 30.4567 0
      vertex 3.89861 30.4567 0
    endloop
  endfacet
  facet normal 0.866025 -0.5 0
    outer loop
      vertex 1.99722 33.75 10
      vertex 3.89861 37.0433 0
      vertex 3.89861 37.0433 10
    endloop
  endfacet
  facet normal 0.866025 -0.5 0
    outer loop
      vertex 3.89861 37.0433 0
      vertex 1.99722 33.75 10
      vertex 1.99722 33.75 0
    endloop
  endfacet
  facet normal -0.866025 0.500001 0
    outer loop
      vertex 7.70139 30.4567 0
      vertex 8 30.9739 10
      vertex 8 30.9739 0
    endloop
  endfacet
  facet normal -0.866025 0.500001 0
    outer loop
      vertex 8 30.9739 10
      vertex 7.70139 30.4567 0
      vertex 7.70139 30.4567 10
    endloop
  endfacet
  facet normal -0.866026 -0.499999 0
    outer loop
      vertex 12.4 36.5261 0
      vertex 12.1014 37.0433 10
      vertex 12.1014 37.0433 0
    endloop
  endfacet
  facet normal -0.866026 -0.499999 0
    outer loop
      vertex 12.1014 37.0433 10
      vertex 12.4 36.5261 0
      vertex 12.4 36.5261 10
    endloop
  endfacet
  facet normal 0.866025 0.500001 0
    outer loop
      vertex 8.29861 30.4567 10
      vertex 8 30.9739 0
      vertex 8 30.9739 10
    endloop
  endfacet
  facet normal 0.866025 0.500001 0
    outer loop
      vertex 8 30.9739 0
      vertex 8.29861 30.4567 10
      vertex 8.29861 30.4567 0
    endloop
  endfacet
  facet normal 0 -1 0
    outer loop
      vertex 8.29861 37.0433 0
      vertex 12.1014 37.0433 10
      vertex 8.29861 37.0433 10
    endloop
  endfacet
  facet normal 0 -1 -0
    outer loop
      vertex 12.1014 37.0433 10
      vertex 8.29861 37.0433 0
      vertex 12.1014 37.0433 0
    endloop
  endfacet
  facet normal 0 1 -0
    outer loop
      vertex 12.1014 30.4567 0
      vertex 8.29861 30.4567 10
      vertex 12.1014 30.4567 10
    endloop
  endfacet
  facet normal 0 1 0
    outer loop
      vertex 8.29861 30.4567 10
      vertex 12.1014 30.4567 0
      vertex 8.29861 30.4567 0
    endloop
  endfacet
  facet normal 0.866025 -0.500001 0
    outer loop
      vertex 8 36.5261 10
      vertex 8.29861 37.0433 0
      vertex 8.29861 37.0433 10
    endloop
  endfacet
  facet normal 0.866025 -0.500001 0
    outer loop
      vertex 8.29861 37.0433 0
      vertex 8 36.5261 10
      vertex 8 36.5261 0
    endloop
  endfacet
  facet normal -0.866025 0.5 0
    outer loop
      vertex 12.1014 30.4567 0
      vertex 12.4 30.9739 10
      vertex 12.4 30.9739 0
    endloop
  endfacet
  facet normal -0.866025 0.5 0
    outer loop
      vertex 12.4 30.9739 10
      vertex 12.1014 30.4567 0
      vertex 12.1014 30.4567 10
    endloop
  endfacet
  facet normal -0.866027 -0.499998 0
    outer loop
      vertex 16.8 36.5261 0
      vertex 16.5014 37.0433 10
      vertex 16.5014 37.0433 0
    endloop
  endfacet
  facet normal -0.866027 -0.499998 0
    outer loop
      vertex 16.5014 37.0433 10
      vertex 16.8 36.5261 0
      vertex 16.8 36.5261 10
    endloop
  endfacet
  facet normal 0.866026 -0.499999 0
    outer loop
      vertex 12.4 36.5261 10
      vertex 12.6986 37.0433 0
      vertex 12.6986 37.0433 10
    endloop
  endfacet
  facet normal 0.866026 -0.499999 0
    outer loop
      vertex 12.6986 37.0433 0
      vertex 12.4 36.5261 10
      vertex 12.4 36.5261 0
    endloop
  endfacet
  facet normal 0 -1 0
    outer loop
      vertex 12.6986 37.0433 0
      vertex 16.5014 37.0433 10
      vertex 12.6986 37.0433 10
    endloop
  endfacet
  facet normal 0 -1 -0
    outer loop
      vertex 16.5014 37.0433 10
      vertex 12.6986 37.0433 0
      vertex 16.5014 37.0433 0
    endloop
  endfacet
  facet normal 0.866025 0.5 0
    outer loop
      vertex 12.6986 30.4567 10
      vertex 12.4 30.9739 0
      vertex 12.4 30.9739 10
    endloop
  endfacet
  facet normal 0.866025 0.5 0
    outer loop
      vertex 12.4 30.9739 0
      vertex 12.6986 30.4567 10
      vertex 12.6986 30.4567 0
    endloop
  endfacet
  facet normal -0.866026 0.499999 0
    outer loop
      vertex 16.5014 30.4567 0
      vertex 16.8 30.9739 10
      vertex 16.8 30.9739 0
    endloop
  endfacet
  facet normal -0.866026 0.499999 0
    outer loop
      vertex 16.8 30.9739 10
      vertex 16.5014 30.4567 0
      vertex 16.5014 30.4567 10
    endloop
  endfacet
  facet normal 0 1 -0
    outer loop
      vertex 16.5014 30.4567 0
      vertex 12.6986 30.4567 10
      vertex 16.5014 30.4567 10
    endloop
  endfacet
  facet normal 0 1 0
    outer loop
      vertex 12.6986 30.4567 10
      vertex 16.5014 30.4567 0
      vertex 12.6986 30.4567 0
    endloop
  endfacet
  facet normal -0.866027 -0.499998 0
    outer loop
      vertex 21.2 36.5261 0
      vertex 20.9014 37.0433 10
      vertex 20.9014 37.0433 0
    endloop
  endfacet
  facet normal -0.866027 -0.499998 0
    outer loop
      vertex 20.9014 37.0433 10
      vertex 21.2 36.5261 0
      vertex 21.2 36.5261 10
    endloop
  endfacet
  facet normal 0 -1 0
    outer loop
      vertex 17.0986 37.0433 0
      vertex 20.9014 37.0433 10
      vertex 17.0986 37.0433 10
    endloop
  endfacet
  facet normal 0 -1 -0
    outer loop
      vertex 20.9014 37.0433 10
      vertex 17.0986 37.0433 0
      vertex 20.9014 37.0433 0
    endloop
  endfacet
  facet normal 0 1 -0
    outer loop
      vertex 20.9014 30.4567 0
      vertex 17.0986 30.4567 10
      vertex 20.9014 30.4567 10
    endloop
  endfacet
  facet normal 0 1 0
    outer loop
      vertex 17.0986 30.4567 10
      vertex 20.9014 30.4567 0
      vertex 17.0986 30.4567 0
    endloop
  endfacet
  facet normal 0.866027 -0.499998 0
    outer loop
      vertex 16.8 36.5261 10
      vertex 17.0986 37.0433 0
      vertex 17.0986 37.0433 10
    endloop
  endfacet
  facet normal 0.866027 -0.499998 0
    outer loop
      vertex 17.0986 37.0433 0
      vertex 16.8 36.5261 10
      vertex 16.8 36.5261 0
    endloop
  endfacet
  facet normal -0.866026 0.499999 0
    outer loop
      vertex 20.9014 30.4567 0
      vertex 21.2 30.9739 10
      vertex 21.2 30.9739 0
    endloop
  endfacet
  facet normal -0.866026 0.499999 0
    outer loop
      vertex 21.2 30.9739 10
      vertex 20.9014 30.4567 0
      vertex 20.9014 30.4567 10
    endloop
  endfacet
  facet normal 0.866026 0.499999 0
    outer loop
      vertex 17.0986 30.4567 10
      vertex 16.8 30.9739 0
      vertex 16.8 30.9739 10
    endloop
  endfacet
  facet normal 0.866026 0.499999 0
    outer loop
      vertex 16.8 30.9739 0
      vertex 17.0986 30.4567 10
      vertex 17.0986 30.4567 0
    endloop
  endfacet
  facet normal -0.866027 -0.499998 0
    outer loop
      vertex 25.6 36.5261 0
      vertex 25.3014 37.0433 10
      vertex 25.3014 37.0433 0
    endloop
  endfacet
  facet normal -0.866027 -0.499998 0
    outer loop
      vertex 25.3014 37.0433 10
      vertex 25.6 36.5261 0
      vertex 25.6 36.5261 10
    endloop
  endfacet
  facet normal 0.866025 -0.5 0
    outer loop
      vertex 21.2 36.5261 10
      vertex 21.4986 37.0433 0
      vertex 21.4986 37.0433 10
    endloop
  endfacet
  facet normal 0.866025 -0.5 0
    outer loop
      vertex 21.4986 37.0433 0
      vertex 21.2 36.5261 10
      vertex 21.2 36.5261 0
    endloop
  endfacet
  facet normal 0 -1 0
    outer loop
      vertex 21.4986 37.0433 0
      vertex 25.3014 37.0433 10
      vertex 21.4986 37.0433 10
    endloop
  endfacet
  facet normal 0 -1 -0
    outer loop
      vertex 25.3014 37.0433 10
      vertex 21.4986 37.0433 0
      vertex 25.3014 37.0433 0
    endloop
  endfacet
  facet normal -0.866026 0.499999 0
    outer loop
      vertex 25.3014 30.4567 0
      vertex 25.6 30.9739 10
      vertex 25.6 30.9739 0
    endloop
  endfacet
  facet normal -0.866026 0.499999 0
    outer loop
      vertex 25.6 30.9739 10
      vertex 25.3014 30.4567 0
      vertex 25.3014 30.4567 10
    endloop
  endfacet
  facet normal 0 1 -0
    outer loop
      vertex 25.3014 30.4567 0
      vertex 21.4986 30.4567 10
      vertex 25.3014 30.4567 10
    endloop
  endfacet
  facet normal 0 1 0
    outer loop
      vertex 21.4986 30.4567 10
      vertex 25.3014 30.4567 0
      vertex 21.4986 30.4567 0
    endloop
  endfacet
  facet normal 0.866024 0.500002 0
    outer loop
      vertex 21.4986 30.4567 10
      vertex 21.2 30.9739 0
      vertex 21.2 30.9739 10
    endloop
  endfacet
  facet normal 0.866024 0.500002 0
    outer loop
      vertex 21.2 30.9739 0
      vertex 21.4986 30.4567 10
      vertex 21.4986 30.4567 0
    endloop
  endfacet
  facet normal -0.866025 -0.500001 0
    outer loop
      vertex 30 36.5261 0
      vertex 29.7014 37.0433 10
      vertex 29.7014 37.0433 0
    endloop
  endfacet
  facet normal -0.866025 -0.500001 0
    outer loop
      vertex 29.7014 37.0433 10
      vertex 30 36.5261 0
      vertex 30 36.5261 10
    endloop
  endfacet
  facet normal 0 -1 0
    outer loop
      vertex 25.8986 37.0433 0
      vertex 29.7014 37.0433 10
      vertex 25.8986 37.0433 10
    endloop
  endfacet
  facet normal 0 -1 -0
    outer loop
      vertex 29.7014 37.0433 10
      vertex 25.8986 37.0433 0
      vertex 29.7014 37.0433 0
    endloop
  endfacet
  facet normal 0 1 -0
    outer loop
      vertex 29.7014 30.4567 0
      vertex 25.8986 30.4567 10
      vertex 29.7014 30.4567 10
    endloop
  endfacet
  facet normal 0 1 0
    outer loop
      vertex 25.8986 30.4567 10
      vertex 29.7014 30.4567 0
      vertex 25.8986 30.4567 0
    endloop
  endfacet
  facet normal 0.866025 -0.5 0
    outer loop
      vertex 25.6 36.5261 10
      vertex 25.8986 37.0433 0
      vertex 25.8986 37.0433 10
    endloop
  endfacet
  facet normal 0.866025 -0.5 0
    outer loop
      vertex 25.8986 37.0433 0
      vertex 25.6 36.5261 10
      vertex 25.6 36.5261 0
    endloop
  endfacet
  facet normal -0.866025 0.500001 0
    outer loop
      vertex 29.7014 30.4567 0
      vertex 30 30.9739 10
      vertex 30 30.9739 0
    endloop
  endfacet
  facet normal -0.866025 0.500001 0
    outer loop
      vertex 30 30.9739 10
      vertex 29.7014 30.4567 0
      vertex 29.7014 30.4567 10
    endloop
  endfacet
  facet normal 0.866024 0.500002 0
    outer loop
      vertex 25.8986 30.4567 10
      vertex 25.6 30.9739 0
      vertex 25.6 30.9739 10
    endloop
  endfacet
  facet normal 0.866024 0.500002 0
    outer loop
      vertex 25.6 30.9739 0
      vertex 25.8986 30.4567 10
      vertex 25.8986 30.4567 0
    endloop
  endfacet
  facet normal -0.866024 -0.500003 0
    outer loop
      vertex 34.4 36.5261 0
      vertex 34.1014 37.0433 10
      vertex 34.1014 37.0433 0
    endloop
  endfacet
  facet normal -0.866024 -0.500003 0
    outer loop
      vertex 34.1014 37.0433 10
      vertex 34.4 36.5261 0
      vertex 34.4 36.5261 10
    endloop
  endfacet
  facet normal 0 -1 0
    outer loop
      vertex 30.2986 37.0433 0
      vertex 34.1014 37.0433 10
      vertex 30.2986 37.0433 10
    endloop
  endfacet
  facet normal 0 -1 -0
    outer loop
      vertex 34.1014 37.0433 10
      vertex 30.2986 37.0433 0
      vertex 34.1014 37.0433 0
    endloop
  endfacet
  facet normal 0 1 -0
    outer loop
      vertex 34.1014 30.4567 0
      vertex 30.2986 30.4567 10
      vertex 34.1014 30.4567 10
    endloop
  endfacet
  facet normal 0 1 0
    outer loop
      vertex 30.2986 30.4567 10
      vertex 34.1014 30.4567 0
      vertex 30.2986 30.4567 0
    endloop
  endfacet
  facet normal 0.866025 -0.500001 0
    outer loop
      vertex 30 36.5261 10
      vertex 30.2986 37.0433 0
      vertex 30.2986 37.0433 10
    endloop
  endfacet
  facet normal 0.866025 -0.500001 0
    outer loop
      vertex 30.2986 37.0433 0
      vertex 30 36.5261 10
      vertex 30 36.5261 0
    endloop
  endfacet
  facet normal -0.866023 0.500004 0
    outer loop
      vertex 34.1014 30.4567 0
      vertex 34.4 30.9739 10
      vertex 34.4 30.9739 0
    endloop
  endfacet
  facet normal -0.866023 0.500004 0
    outer loop
      vertex 34.4 30.9739 10
      vertex 34.1014 30.4567 0
      vertex 34.1014 30.4567 10
    endloop
  endfacet
  facet normal 0.866025 0.500001 0
    outer loop
      vertex 30.2986 30.4567 10
      vertex 30 30.9739 0
      vertex 30 30.9739 10
    endloop
  endfacet
  facet normal 0.866025 0.500001 0
    outer loop
      vertex 30 30.9739 0
      vertex 30.2986 30.4567 10
      vertex 30.2986 30.4567 0
    endloop
  endfacet
  facet normal -0.866027 -0.499998 0
    outer loop
      vertex 38.8 36.5261 0
      vertex 38.5014 37.0433 10
      vertex 38.5014 37.0433 0
    endloop
  endfacet
  facet normal -0.866027 -0.499998 0
    outer loop
      vertex 38.5014 37.0433 10
      vertex 38.8 36.5261 0
      vertex 38.8 36.5261 10
    endloop
  endfacet
  facet normal 0 1 -0
    outer loop
      vertex 38.5014 30.4567 0
      vertex 34.6986 30.4567 10
      vertex 38.5014 30.4567 10
    endloop
  endfacet
  facet normal 0 1 0
    outer loop
      vertex 34.6986 30.4567 10
      vertex 38.5014 30.4567 0
      vertex 34.6986 30.4567 0
    endloop
  endfacet
  facet normal 0.866027 -0.499998 0
    outer loop
      vertex 34.4 36.5261 10
      vertex 34.6986 37.0433 0
      vertex 34.6986 37.0433 10
    endloop
  endfacet
  facet normal 0.866027 -0.499998 0
    outer loop
      vertex 34.6986 37.0433 0
      vertex 34.4 36.5261 10
      vertex 34.4 36.5261 0
    endloop
  endfacet
  facet normal 0 -1 0
    outer loop
      vertex 34.6986 37.0433 0
      vertex 38.5014 37.0433 10
      vertex 34.6986 37.0433 10
    endloop
  endfacet
  facet normal 0 -1 -0
    outer loop
      vertex 38.5014 37.0433 10
      vertex 34.6986 37.0433 0
      vertex 38.5014 37.0433 0
    endloop
  endfacet
  facet normal 0.866026 0.499999 0
    outer loop
      vertex 34.6986 30.4567 10
      vertex 34.4 30.9739 0
      vertex 34.4 30.9739 10
    endloop
  endfacet
  facet normal 0.866026 0.499999 0
    outer loop
      vertex 34.4 30.9739 0
      vertex 34.6986 30.4567 10
      vertex 34.6986 30.4567 0
    endloop
  endfacet
  facet normal -0.866026 0.499999 0
    outer loop
      vertex 38.5014 30.4567 0
      vertex 38.8 30.9739 10
      vertex 38.8 30.9739 0
    endloop
  endfacet
  facet normal -0.866026 0.499999 0
    outer loop
      vertex 38.8 30.9739 10
      vertex 38.5014 30.4567 0
      vertex 38.5014 30.4567 10
    endloop
  endfacet
  facet normal -0.866027 -0.499998 0
    outer loop
      vertex 43.2 36.5261 0
      vertex 42.9014 37.0433 10
      vertex 42.9014 37.0433 0
    endloop
  endfacet
  facet normal -0.866027 -0.499998 0
    outer loop
      vertex 42.9014 37.0433 10
      vertex 43.2 36.5261 0
      vertex 43.2 36.5261 10
    endloop
  endfacet
  facet normal 0.866026 0.499999 0
    outer loop
      vertex 39.0986 30.4567 10
      vertex 38.8 30.9739 0
      vertex 38.8 30.9739 10
    endloop
  endfacet
  facet normal 0.866026 0.499999 0
    outer loop
      vertex 38.8 30.9739 0
      vertex 39.0986 30.4567 10
      vertex 39.0986 30.4567 0
    endloop
  endfacet
  facet normal 0 -1 0
    outer loop
      vertex 39.0986 37.0433 0
      vertex 42.9014 37.0433 10
      vertex 39.0986 37.0433 10
    endloop
  endfacet
  facet normal 0 -1 -0
    outer loop
      vertex 42.9014 37.0433 10
      vertex 39.0986 37.0433 0
      vertex 42.9014 37.0433 0
    endloop
  endfacet
  facet normal 0 1 -0
    outer loop
      vertex 42.9014 30.4567 0
      vertex 39.0986 30.4567 10
      vertex 42.9014 30.4567 10
    endloop
  endfacet
  facet normal 0 1 0
    outer loop
      vertex 39.0986 30.4567 10
      vertex 42.9014 30.4567 0
      vertex 39.0986 30.4567 0
    endloop
  endfacet
  facet normal 0.866027 -0.499998 0
    outer loop
      vertex 38.8 36.5261 10
      vertex 39.0986 37.0433 0
      vertex 39.0986 37.0433 10
    endloop
  endfacet
  facet normal 0.866027 -0.499998 0
    outer loop
      vertex 39.0986 37.0433 0
      vertex 38.8 36.5261 10
      vertex 38.8 36.5261 0
    endloop
  endfacet
  facet normal -0.866026 0.499999 0
    outer loop
      vertex 42.9014 30.4567 0
      vertex 43.2 30.9739 10
      vertex 43.2 30.9739 0
    endloop
  endfacet
  facet normal -0.866026 0.499999 0
    outer loop
      vertex 43.2 30.9739 10
      vertex 42.9014 30.4567 0
      vertex 42.9014 30.4567 10
    endloop
  endfacet
  facet normal -0.866027 -0.499998 0
    outer loop
      vertex 47.6 36.5261 0
      vertex 47.3014 37.0433 10
      vertex 47.3014 37.0433 0
    endloop
  endfacet
  facet normal -0.866027 -0.499998 0
    outer loop
      vertex 47.3014 37.0433 10
      vertex 47.6 36.5261 0
      vertex 47.6 36.5261 10
    endloop
  endfacet
  facet normal 0.866027 -0.499998 0
    outer loop
      vertex 43.2 36.5261 10
      vertex 43.4986 37.0433 0
      vertex 43.4986 37.0433 10
    endloop
  endfacet
  facet normal 0.866027 -0.499998 0
    outer loop
      vertex 43.4986 37.0433 0
      vertex 43.2 36.5261 10
      vertex 43.2 36.5261 0
    endloop
  endfacet
  facet normal 0 -1 0
    outer loop
      vertex 43.4986 37.0433 0
      vertex 47.3014 37.0433 10
      vertex 43.4986 37.0433 10
    endloop
  endfacet
  facet normal 0 -1 -0
    outer loop
      vertex 47.3014 37.0433 10
      vertex 43.4986 37.0433 0
      vertex 47.3014 37.0433 0
    endloop
  endfacet
  facet normal -0.866026 0.499999 0
    outer loop
      vertex 47.3014 30.4567 0
      vertex 47.6 30.9739 10
      vertex 47.6 30.9739 0
    endloop
  endfacet
  facet normal -0.866026 0.499999 0
    outer loop
      vertex 47.6 30.9739 10
      vertex 47.3014 30.4567 0
      vertex 47.3014 30.4567 10
    endloop
  endfacet
  facet normal 0 1 -0
    outer loop
      vertex 47.3014 30.4567 0
      vertex 43.4986 30.4567 10
      vertex 47.3014 30.4567 10
    endloop
  endfacet
  facet normal 0 1 0
    outer loop
      vertex 43.4986 30.4567 10
      vertex 47.3014 30.4567 0
      vertex 43.4986 30.4567 0
    endloop
  endfacet
  facet normal 0.866026 0.499999 0
    outer loop
      vertex 43.4986 30.4567 10
      vertex 43.2 30.9739 0
      vertex 43.2 30.9739 10
    endloop
  endfacet
  facet normal 0.866026 0.499999 0
    outer loop
      vertex 43.2 30.9739 0
      vertex 43.4986 30.4567 10
      vertex 43.4986 30.4567 0
    endloop
  endfacet
  facet normal -0.866025 -0.500001 0
    outer loop
      vertex 52 36.5261 0
      vertex 51.7014 37.0433 10
      vertex 51.7014 37.0433 0
    endloop
  endfacet
  facet normal -0.866025 -0.500001 0
    outer loop
      vertex 51.7014 37.0433 10
      vertex 52 36.5261 0
      vertex 52 36.5261 10
    endloop
  endfacet
  facet normal 0.866023 0.500004 0
    outer loop
      vertex 47.8986 30.4567 10
      vertex 47.6 30.9739 0
      vertex 47.6 30.9739 10
    endloop
  endfacet
  facet normal 0.866023 0.500004 0
    outer loop
      vertex 47.6 30.9739 0
      vertex 47.8986 30.4567 10
      vertex 47.8986 30.4567 0
    endloop
  endfacet
  facet normal 0 -1 0
    outer loop
      vertex 47.8986 37.0433 0
      vertex 51.7014 37.0433 10
      vertex 47.8986 37.0433 10
    endloop
  endfacet
  facet normal 0 -1 -0
    outer loop
      vertex 51.7014 37.0433 10
      vertex 47.8986 37.0433 0
      vertex 51.7014 37.0433 0
    endloop
  endfacet
  facet normal 0 1 -0
    outer loop
      vertex 51.7014 30.4567 0
      vertex 47.8986 30.4567 10
      vertex 51.7014 30.4567 10
    endloop
  endfacet
  facet normal 0 1 0
    outer loop
      vertex 47.8986 30.4567 10
      vertex 51.7014 30.4567 0
      vertex 47.8986 30.4567 0
    endloop
  endfacet
  facet normal 0.866024 -0.500003 0
    outer loop
      vertex 47.6 36.5261 10
      vertex 47.8986 37.0433 0
      vertex 47.8986 37.0433 10
    endloop
  endfacet
  facet normal 0.866024 -0.500003 0
    outer loop
      vertex 47.8986 37.0433 0
      vertex 47.6 36.5261 10
      vertex 47.6 36.5261 0
    endloop
  endfacet
  facet normal -0.866025 0.500001 0
    outer loop
      vertex 51.7014 30.4567 0
      vertex 52 30.9739 10
      vertex 52 30.9739 0
    endloop
  endfacet
  facet normal -0.866025 0.500001 0
    outer loop
      vertex 52 30.9739 10
      vertex 51.7014 30.4567 0
      vertex 51.7014 30.4567 10
    endloop
  endfacet
  facet normal -0.866025 -0.5 0
    outer loop
      vertex 58.0028 33.75 0
      vertex 56.1014 37.0433 10
      vertex 56.1014 37.0433 0
    endloop
  endfacet
  facet normal -0.866025 -0.5 0
    outer loop
      vertex 56.1014 37.0433 10
      vertex 58.0028 33.75 0
      vertex 58.0028 33.75 10
    endloop
  endfacet
  facet normal 0 -1 0
    outer loop
      vertex 52.2986 37.0433 0
      vertex 56.1014 37.0433 10
      vertex 52.2986 37.0433 10
    endloop
  endfacet
  facet normal 0 -1 -0
    outer loop
      vertex 56.1014 37.0433 10
      vertex 52.2986 37.0433 0
      vertex 56.1014 37.0433 0
    endloop
  endfacet
  facet normal 0 1 -0
    outer loop
      vertex 56.1014 30.4567 0
      vertex 52.2986 30.4567 10
      vertex 56.1014 30.4567 10
    endloop
  endfacet
  facet normal 0 1 0
    outer loop
      vertex 52.2986 30.4567 10
      vertex 56.1014 30.4567 0
      vertex 52.2986 30.4567 0
    endloop
  endfacet
  facet normal 0.866025 -0.500001 0
    outer loop
      vertex 52 36.5261 10
      vertex 52.2986 37.0433 0
      vertex 52.2986 37.0433 10
    endloop
  endfacet
  facet normal 0.866025 -0.500001 0
    outer loop
      vertex 52.2986 37.0433 0
      vertex 52 36.5261 10
      vertex 52 36.5261 0
    endloop
  endfacet
  facet normal -0.866025 0.5 0
    outer loop
      vertex 56.1014 30.4567 0
      vertex 58.0028 33.75 10
      vertex 58.0028 33.75 0
    endloop
  endfacet
  facet normal -0.866025 0.5 0
    outer loop
      vertex 58.0028 33.75 10
      vertex 56.1014 30.4567 0
      vertex 56.1014 30.4567 10
    endloop
  endfacet
  facet normal 0.866025 0.500001 0
    outer loop
      vertex 52.2986 30.4567 10
      vertex 52 30.9739 0
      vertex 52 30.9739 10
    endloop
  endfacet
  facet normal 0.866025 0.500001 0
    outer loop
      vertex 52 30.9739 0
      vertex 52.2986 30.4567 10
      vertex 52.2986 30.4567 0
    endloop
  endfacet
endsolid OpenSCAD_Model
